<?xml version="1.0" encoding="UTF-8"?><svg id="Layer_1" xmlns="http://www.w3.org/2000/svg" viewBox="0 0 215.79 95.25"><defs><style>.cls-1{fill:#e2b8e0;}.cls-1,.cls-2,.cls-3,.cls-4,.cls-5,.cls-6{stroke-width:0px;}.cls-2{fill:#d0d0d0;}.cls-3{fill:#c797c9;}.cls-4{fill:#e5d353;}.cls-5{fill:#f8ea65;}.cls-6{fill:#b5b5b5;}</style></defs><path class="cls-3" d="M5.04,0C2.26,0,0,2.26,0,5.04v85.17c0,2.78,2.26,5.04,5.04,5.04h28.37V0H5.04Z"/><path class="cls-1" d="M43,47.62c13.26,0,23.98-10.83,23.81-24.13-.17-13.09-11.08-23.5-24.16-23.5h-9.24v95.25h9.24c13.09,0,23.99-10.41,24.16-23.5.17-13.3-10.55-24.13-23.81-24.13Z"/><path class="cls-4" d="M81.34,0c-2.78,0-5.04,2.26-5.04,5.04v38.15c0,2.89.89,5.71,2.54,8.07l27.44,39.26c.85,1.22,2.21,1.78,3.53,1.71V0h-28.48Z"/><path class="cls-5" d="M137.83,0h-28.01v92.23c1.17-.07,2.32-.63,3.07-1.71l27.44-39.26c1.65-2.37,2.54-5.19,2.54-8.07V5.04c0-2.78-2.26-5.04-5.04-5.04Z"/><path class="cls-6" d="M157.5,0c-2.78,0-5.04,2.26-5.04,5.04v85.17c0,2.78,2.26,5.04,5.04,5.04h26.59V0h-26.59Z"/><path class="cls-2" d="M215.05,88.77l-26.52-37.94c-1.38-1.98-1.38-4.61,0-6.59l26.5-37.9c1.87-2.67-.04-6.34-3.3-6.34h-27.63v95.25h2.13l25.55-.14c3.25-.02,5.14-3.68,3.28-6.34Z"/></svg>